<mxfile host="app.diagrams.net" agent="Mozilla/5.0 (Windows NT 10.0; Win64; x64) AppleWebKit/537.36 (KHTML, like Gecko) Chrome/135.0.0.0 Safari/537.36" version="26.2.14">
  <diagram name="Page-1" id="EhupwXQCum9D8GcqkOYG">
    <mxGraphModel dx="1089" dy="579" grid="1" gridSize="10" guides="1" tooltips="1" connect="1" arrows="1" fold="1" page="1" pageScale="1" pageWidth="850" pageHeight="1100" math="0" shadow="0">
      <root>
        <mxCell id="0" />
        <mxCell id="1" parent="0" />
        <mxCell id="7i1ninCHhoOF4IIHglD1-1" value="" style="rounded=0;whiteSpace=wrap;html=1;" parent="1" vertex="1">
          <mxGeometry x="270" y="220" width="290" height="550" as="geometry" />
        </mxCell>
        <mxCell id="wF8JjJ0OHBjzFsopDSq--4" style="edgeStyle=orthogonalEdgeStyle;rounded=0;orthogonalLoop=1;jettySize=auto;html=1;entryX=0;entryY=0.5;entryDx=0;entryDy=0;" edge="1" parent="1" source="7i1ninCHhoOF4IIHglD1-2" target="wF8JjJ0OHBjzFsopDSq--1">
          <mxGeometry relative="1" as="geometry">
            <Array as="points">
              <mxPoint x="250" y="300" />
            </Array>
          </mxGeometry>
        </mxCell>
        <mxCell id="wF8JjJ0OHBjzFsopDSq--8" value="" style="edgeStyle=orthogonalEdgeStyle;rounded=0;orthogonalLoop=1;jettySize=auto;html=1;" edge="1" parent="1" source="7i1ninCHhoOF4IIHglD1-2" target="wF8JjJ0OHBjzFsopDSq--7">
          <mxGeometry relative="1" as="geometry">
            <Array as="points">
              <mxPoint x="255" y="270" />
            </Array>
          </mxGeometry>
        </mxCell>
        <mxCell id="wF8JjJ0OHBjzFsopDSq--38" style="edgeStyle=orthogonalEdgeStyle;rounded=0;orthogonalLoop=1;jettySize=auto;html=1;entryX=0;entryY=0.5;entryDx=0;entryDy=0;" edge="1" parent="1" source="7i1ninCHhoOF4IIHglD1-2" target="wF8JjJ0OHBjzFsopDSq--19">
          <mxGeometry relative="1" as="geometry" />
        </mxCell>
        <mxCell id="7i1ninCHhoOF4IIHglD1-2" value="Customer&lt;div&gt;&lt;br&gt;&lt;/div&gt;" style="shape=umlActor;verticalLabelPosition=bottom;verticalAlign=top;html=1;outlineConnect=0;" parent="1" vertex="1">
          <mxGeometry x="120" y="360" width="30" height="60" as="geometry" />
        </mxCell>
        <mxCell id="wF8JjJ0OHBjzFsopDSq--40" style="edgeStyle=orthogonalEdgeStyle;rounded=0;orthogonalLoop=1;jettySize=auto;html=1;entryX=1;entryY=0.5;entryDx=0;entryDy=0;" edge="1" parent="1" source="7i1ninCHhoOF4IIHglD1-3" target="wF8JjJ0OHBjzFsopDSq--19">
          <mxGeometry relative="1" as="geometry" />
        </mxCell>
        <mxCell id="7i1ninCHhoOF4IIHglD1-3" value="Administrator&lt;div&gt;&lt;br&gt;&lt;/div&gt;" style="shape=umlActor;verticalLabelPosition=bottom;verticalAlign=top;html=1;outlineConnect=0;" parent="1" vertex="1">
          <mxGeometry x="660" y="500" width="30" height="60" as="geometry" />
        </mxCell>
        <mxCell id="wF8JjJ0OHBjzFsopDSq--1" value="&lt;font style=&quot;font-size: 6px;&quot;&gt;login&lt;/font&gt;" style="ellipse;whiteSpace=wrap;html=1;" vertex="1" parent="1">
          <mxGeometry x="382.5" y="290" width="35" height="20" as="geometry" />
        </mxCell>
        <mxCell id="wF8JjJ0OHBjzFsopDSq--7" value="&lt;font style=&quot;font-size: 4px;&quot;&gt;create account&lt;/font&gt;" style="ellipse;whiteSpace=wrap;html=1;verticalAlign=top;" vertex="1" parent="1">
          <mxGeometry x="377.5" y="250" width="42.5" height="30" as="geometry" />
        </mxCell>
        <mxCell id="wF8JjJ0OHBjzFsopDSq--9" value="&lt;font style=&quot;font-size: 6px;&quot;&gt;brows&lt;/font&gt;" style="ellipse;whiteSpace=wrap;html=1;" vertex="1" parent="1">
          <mxGeometry x="380" y="320" width="36.25" height="20" as="geometry" />
        </mxCell>
        <mxCell id="wF8JjJ0OHBjzFsopDSq--10" value="&lt;span style=&quot;font-size: 6px;&quot;&gt;search&lt;/span&gt;" style="ellipse;whiteSpace=wrap;html=1;" vertex="1" parent="1">
          <mxGeometry x="380.93" y="350" width="35.63" height="20" as="geometry" />
        </mxCell>
        <mxCell id="wF8JjJ0OHBjzFsopDSq--11" value="&lt;span style=&quot;font-size: 6px;&quot;&gt;purchase&amp;nbsp;&lt;/span&gt;" style="ellipse;whiteSpace=wrap;html=1;" vertex="1" parent="1">
          <mxGeometry x="382.5" y="380" width="35" height="20" as="geometry" />
        </mxCell>
        <mxCell id="wF8JjJ0OHBjzFsopDSq--13" value="&lt;span style=&quot;font-size: 6px;&quot;&gt;add&lt;/span&gt;" style="ellipse;whiteSpace=wrap;html=1;" vertex="1" parent="1">
          <mxGeometry x="480" y="390" width="35" height="20" as="geometry" />
        </mxCell>
        <mxCell id="wF8JjJ0OHBjzFsopDSq--14" value="&lt;span style=&quot;font-size: 6px;&quot;&gt;remove&lt;/span&gt;" style="ellipse;whiteSpace=wrap;html=1;" vertex="1" parent="1">
          <mxGeometry x="480" y="430" width="35" height="20" as="geometry" />
        </mxCell>
        <mxCell id="wF8JjJ0OHBjzFsopDSq--48" style="edgeStyle=orthogonalEdgeStyle;rounded=0;orthogonalLoop=1;jettySize=auto;html=1;exitX=1;exitY=0.5;exitDx=0;exitDy=0;entryX=0;entryY=0.5;entryDx=0;entryDy=0;" edge="1" parent="1" source="wF8JjJ0OHBjzFsopDSq--15" target="wF8JjJ0OHBjzFsopDSq--16">
          <mxGeometry relative="1" as="geometry" />
        </mxCell>
        <mxCell id="wF8JjJ0OHBjzFsopDSq--49" style="edgeStyle=orthogonalEdgeStyle;rounded=0;orthogonalLoop=1;jettySize=auto;html=1;entryX=0;entryY=0.5;entryDx=0;entryDy=0;" edge="1" parent="1" source="wF8JjJ0OHBjzFsopDSq--15" target="wF8JjJ0OHBjzFsopDSq--17">
          <mxGeometry relative="1" as="geometry" />
        </mxCell>
        <mxCell id="wF8JjJ0OHBjzFsopDSq--15" value="&lt;span style=&quot;font-size: 6px;&quot;&gt;pay&lt;/span&gt;" style="ellipse;whiteSpace=wrap;html=1;" vertex="1" parent="1">
          <mxGeometry x="382.5" y="480" width="50" height="30" as="geometry" />
        </mxCell>
        <mxCell id="wF8JjJ0OHBjzFsopDSq--16" value="&lt;span style=&quot;font-size: 6px;&quot;&gt;credit&lt;/span&gt;" style="ellipse;whiteSpace=wrap;html=1;" vertex="1" parent="1">
          <mxGeometry x="490" y="465" width="35" height="20" as="geometry" />
        </mxCell>
        <mxCell id="wF8JjJ0OHBjzFsopDSq--17" value="&lt;span style=&quot;font-size: 6px;&quot;&gt;paypal&lt;/span&gt;" style="ellipse;whiteSpace=wrap;html=1;" vertex="1" parent="1">
          <mxGeometry x="490" y="505" width="35" height="20" as="geometry" />
        </mxCell>
        <mxCell id="wF8JjJ0OHBjzFsopDSq--19" value="&lt;span style=&quot;font-size: 6px;&quot;&gt;veiw orders&lt;/span&gt;" style="ellipse;whiteSpace=wrap;html=1;" vertex="1" parent="1">
          <mxGeometry x="370" y="535" width="46.56" height="25" as="geometry" />
        </mxCell>
        <mxCell id="wF8JjJ0OHBjzFsopDSq--26" value="" style="endArrow=none;dashed=1;html=1;rounded=0;entryX=0.032;entryY=0.514;entryDx=0;entryDy=0;entryPerimeter=0;" edge="1" parent="1" source="wF8JjJ0OHBjzFsopDSq--12" target="wF8JjJ0OHBjzFsopDSq--13">
          <mxGeometry width="50" height="50" relative="1" as="geometry">
            <mxPoint x="410" y="420" as="sourcePoint" />
            <mxPoint x="440" y="400" as="targetPoint" />
            <Array as="points">
              <mxPoint x="481" y="420" />
            </Array>
          </mxGeometry>
        </mxCell>
        <mxCell id="wF8JjJ0OHBjzFsopDSq--31" value="" style="endArrow=none;dashed=1;html=1;rounded=0;entryX=0;entryY=0.5;entryDx=0;entryDy=0;exitX=1;exitY=0.5;exitDx=0;exitDy=0;" edge="1" parent="1" source="wF8JjJ0OHBjzFsopDSq--12" target="wF8JjJ0OHBjzFsopDSq--14">
          <mxGeometry width="50" height="50" relative="1" as="geometry">
            <mxPoint x="374" y="428" as="sourcePoint" />
            <mxPoint x="491" y="410" as="targetPoint" />
            <Array as="points">
              <mxPoint x="480" y="420" />
            </Array>
          </mxGeometry>
        </mxCell>
        <mxCell id="wF8JjJ0OHBjzFsopDSq--34" style="edgeStyle=orthogonalEdgeStyle;rounded=0;orthogonalLoop=1;jettySize=auto;html=1;exitX=1;exitY=0.5;exitDx=0;exitDy=0;entryX=0;entryY=0.5;entryDx=0;entryDy=0;" edge="1" parent="1" source="wF8JjJ0OHBjzFsopDSq--32" target="wF8JjJ0OHBjzFsopDSq--15">
          <mxGeometry relative="1" as="geometry" />
        </mxCell>
        <mxCell id="wF8JjJ0OHBjzFsopDSq--32" value="&lt;span style=&quot;font-size: 6px;&quot;&gt;place order&lt;/span&gt;" style="ellipse;whiteSpace=wrap;html=1;" vertex="1" parent="1">
          <mxGeometry x="320" y="485" width="40" height="20" as="geometry" />
        </mxCell>
        <mxCell id="wF8JjJ0OHBjzFsopDSq--33" value="&lt;span style=&quot;font-size: 6px;&quot;&gt;track orders&lt;/span&gt;" style="ellipse;whiteSpace=wrap;html=1;" vertex="1" parent="1">
          <mxGeometry x="369.37" y="580" width="46.56" height="25" as="geometry" />
        </mxCell>
        <mxCell id="wF8JjJ0OHBjzFsopDSq--35" value="" style="endArrow=none;dashed=1;html=1;rounded=0;exitX=1;exitY=0.5;exitDx=0;exitDy=0;" edge="1" parent="1" source="wF8JjJ0OHBjzFsopDSq--12">
          <mxGeometry width="50" height="50" relative="1" as="geometry">
            <mxPoint x="350" y="470" as="sourcePoint" />
            <mxPoint x="400" y="420" as="targetPoint" />
          </mxGeometry>
        </mxCell>
        <mxCell id="wF8JjJ0OHBjzFsopDSq--12" value="&lt;span style=&quot;font-size: 6px;&quot;&gt;cart&lt;/span&gt;" style="ellipse;whiteSpace=wrap;html=1;" vertex="1" parent="1">
          <mxGeometry x="380.93" y="410" width="35" height="20" as="geometry" />
        </mxCell>
        <mxCell id="wF8JjJ0OHBjzFsopDSq--42" value="&lt;span style=&quot;font-size: 6px;&quot;&gt;manage products&lt;/span&gt;" style="ellipse;whiteSpace=wrap;html=1;" vertex="1" parent="1">
          <mxGeometry x="443.44" y="610" width="56.56" height="30" as="geometry" />
        </mxCell>
        <mxCell id="wF8JjJ0OHBjzFsopDSq--43" value="online shopping system" style="rounded=0;whiteSpace=wrap;html=1;" vertex="1" parent="1">
          <mxGeometry x="270" y="180" width="290" height="40" as="geometry" />
        </mxCell>
        <mxCell id="wF8JjJ0OHBjzFsopDSq--44" value="" style="endArrow=none;dashed=1;html=1;rounded=0;exitX=0.5;exitY=0;exitDx=0;exitDy=0;entryX=0.5;entryY=1;entryDx=0;entryDy=0;" edge="1" parent="1" source="wF8JjJ0OHBjzFsopDSq--33" target="wF8JjJ0OHBjzFsopDSq--19">
          <mxGeometry width="50" height="50" relative="1" as="geometry">
            <mxPoint x="350" y="570" as="sourcePoint" />
            <mxPoint x="400" y="520" as="targetPoint" />
          </mxGeometry>
        </mxCell>
        <mxCell id="wF8JjJ0OHBjzFsopDSq--50" value="&lt;span style=&quot;font-size: 6px;&quot;&gt;inventory&lt;/span&gt;" style="ellipse;whiteSpace=wrap;html=1;" vertex="1" parent="1">
          <mxGeometry x="443.44" y="650" width="46.56" height="25" as="geometry" />
        </mxCell>
        <mxCell id="wF8JjJ0OHBjzFsopDSq--51" value="&lt;span style=&quot;font-size: 6px;&quot;&gt;generate reports&lt;/span&gt;" style="ellipse;whiteSpace=wrap;html=1;" vertex="1" parent="1">
          <mxGeometry x="443.44" y="680" width="46.56" height="25" as="geometry" />
        </mxCell>
        <mxCell id="wF8JjJ0OHBjzFsopDSq--52" value="&lt;span style=&quot;font-size: 6px;&quot;&gt;process orders&lt;/span&gt;" style="ellipse;whiteSpace=wrap;html=1;" vertex="1" parent="1">
          <mxGeometry x="443.44" y="720" width="46.56" height="25" as="geometry" />
        </mxCell>
      </root>
    </mxGraphModel>
  </diagram>
</mxfile>
